<?xml version="1.0" encoding="UTF-8" standalone="no"?>
<!-- Creator: CorelDRAW X6 -->
<svg id="svg2" xmlns:rdf="http://www.w3.org/1999/02/22-rdf-syntax-ns#" xmlns="http://www.w3.org/2000/svg" text-rendering="geometricPrecision" 
  fill-rule="evenodd" xml:space="preserve" height="14px" width="17px" shape-rendering="geometricPrecision" version="1.1" clip-rule="evenodd" 
  image-rendering="optimizeQuality" xmlns:cc="http://creativecommons.org/ns#" xmlns:dc="http://purl.org/dc/elements/1.1/" 
  viewBox="0 0 98500 76330"><metadata id="metadata13"><rdf:RDF><cc:Work rdf:about=""><dc:format>image/svg+xml</dc:format><dc:type 
  rdf:resource="http://purl.org/dc/dcmitype/StillImage"/></cc:Work></rdf:RDF></metadata>
 <path id="path5" d="m49250 75327-32189-18585v-34795c-1920-954-3801-1995-5636-3122-1036 751-2310 1193-3687 1193-3476 0-6294-2818-6294-6294s2818-6294 6294-6294 6294 2818 6294 6294c0 656-100 1288-286 1882 1704 1036 3449 1994 5229 2873l30271-17477 32195 18581v34795c1920 954 3801 1995 5636 3122 1036-750 2310-1193 3687-1193 3476 0 6294 2818 6294 6294s-2818 6294-6294 6294-6294-2818-6294-6294c0-656 100-1288 286-1882-1704-1036-3449-1994-5229-2873l-30277 17480zm1982-43139c1882 624 3369 2111 3993 3993h7305c-111-2623-441-5216-979-7752-3410 590-6858 936-10318 1031v2728zm3993 7958c-624 1881-2111 3369-3993 3993v2703c3470 96 6920 442 10323 1031 535-2528 864-5113 974-7728h-7305zm19838-19676-16447-9496c2544 3980 4513 8311 5849 12841 3608-823 7152-1941 10598-3345zm2412 32086v-12410h-10977c-112 2879-469 5726-1057 8510 4116 947 8146 2252 12034 3900zm0-16375v-12430c-3895 1650-7924 2952-12039 3897 591 2792 949 5646 1062 8533h10977zm-18857 29170 16465-9506c-3439-1404-6990-2526-10611-3353-1336 4537-3306 8873-5853 12859zm-7386-14543v17827c4275-4905 7453-10691 9336-16914-3075-515-6194-822-9336-913zm0-43115v17802c3140-90 6257-395 9329-909-1884-6216-5059-11993-9329-16893zm-4312 30470c0 1279 1035 2329 2329 2329s2329-1050 2329-2329-1035-2329-2329-2329-2329 1050-2329 2329zm347 5975c-1882-624-3369-2111-3993-3993h-7305c111 2623 441 5216 979 7752 3410-590 6858-936 10318-1031v-2728zm-3993-7958c624-1881 2111-3369 3993-3993v-2703c-3470-96-6920-442-10323-1031-535 2528-864 5113-974 7728h7305zm-19838 19676 16447 9496c-2544-3980-4513-8311-5849-12841-3608 823-7152 1941-10598 3345zm-2412-32086v12410h10977c112-2879 469-5726 1057-8510-4116-947-8146-2252-12034-3900zm0 16375v12430c3895-1650 7924-2952 12039-3897-591-2792-949-5646-1062-8533h-10977zm18857-29170-16465 9506c3439 1404 6990 2526 10611 3353 1336-4537 3306-8873 5853-12859zm7386 14543v-17827c-4275 4905-7453 10691-9336 16914 3075 515 6194 821 9336 913zm0 43115v-17802c-3140 90-6257 395-9329 909 1884 6216 5059 11993 9329 16893zm-39531-57238c-1287 0-2329 1043-2329 2329 0 1287 1043 2329 2329 2329 1287 0 2329-1043 2329-2329 0-1287-1043-2329-2329-2329zm83026 53536c1287 0 2329-1043 2329-2329 0-1287-1043-2329-2329-2329-1287 0-2329 1043-2329 2329 0 1287 1043 2329 2329 2329z" fill-rule="nonzero" fill="#fefefe"/>
</svg>
