<?xml version="1.0" encoding="UTF-8" standalone="no"?>
<!-- Creator: CorelDRAW X6 -->
<svg id="svg2" xmlns:rdf="http://www.w3.org/1999/02/22-rdf-syntax-ns#" xmlns="http://www.w3.org/2000/svg" text-rendering="geometricPrecision" fill-rule="evenodd" xml:space="preserve" height="865px" shape-rendering="geometricPrecision" width="1081px" version="1.1" clip-rule="evenodd" image-rendering="optimizeQuality" xmlns:cc="http://creativecommons.org/ns#" xmlns:dc="http://purl.org/dc/elements/1.1/" viewBox="0 0 108100 86480"><metadata id="metadata19"><rdf:RDF><cc:Work rdf:about=""><dc:format>image/svg+xml</dc:format><dc:type rdf:resource="http://purl.org/dc/dcmitype/StillImage"/></cc:Work></rdf:RDF></metadata>
 <g id="_621899696" transform="translate(.5)">
   <path id="path7" d="m23319 18245c112 62 225 123 338 184l30387-17544 36693 21177v34660c445 242 889 489 1329 740 1117-382 2296-580 3494-580 5959 0 10793 4834 10793 10793s-4834 10793-10793 10793c-5772 0-10489-4536-10779-10237-112-62-225-123-338-184l-30394 17548-36687-21181v-34660c-445-242-889-489-1329-740-1117 382-2296 580-3494 580-5959 0-10793-4834-10793-10793s4834-10793 10793-10793c5772 0 10489 4536 10779 10237z" fill="#e0edfa"/>
   <path id="path9" d="m54050 80399-32187-18583v-34793c-1920-954-3800-1995-5636-3122-1036 750-2310 1193-3687 1193-3475 0-6294-2818-6294-6294 0-3475 2818-6294 6294-6294 3475 0 6294 2818 6294 6294 0 655-100 1288-286 1882 1704 1036 3449 1994 5228 2873l30269-17476 32193 18580v34793c1920 954 3800 1995 5636 3122 1036-750 2310-1193 3687-1193 3475 0 6294 2818 6294 6293s-2818 6294-6294 6294c-3475 0-6294-2818-6294-6294 0-655 100-1288 286-1882-1704-1036-3449-1994-5228-2873l-30275 17479z" fill-rule="nonzero" fill="#3e3e3d"/>
   <path id="path11" d="m56032 37263c1881 624 3369 2111 3993 3993h7304c-111-2623-441-5216-979-7751-3410 590-6858 936-10317 1031v2727zm3993 7957c-624 1881-2111 3369-3993 3993v2703c3470 96 6919 442 10323 1032 535-2528 864-5112 974-7727h-7304zm19837-19674-16445-9495c2544 3980 4513 8310 5849 12840 3608-823 7152-1941 10597-3345zm2411 32084v-12410h-10977c-112 2879-469 5725-1057 8510 4116 947 8145 2252 12034 3900zm0-16374v-12429c-3895 1650-7924 2952-12039 3896 591 2792 949 5646 1062 8533h10977zm-18855 29168 16464-9505c-3439-1404-6990-2526-10611-3352-1336 4537-3305 8872-5853 12858zm-7385-14542v17826c4274-4904 7452-10690 9335-16913-3075-515-6194-821-9335-913zm0-43112v17800c3140-90 6257-395 9329-909-1884-6216-5059-11992-9329-16892zm-4312 30468c0 1279 1035 2329 2329 2329s2329-1050 2329-2329-1035-2329-2329-2329-2329 1050-2329 2329zm347 5975c-1881-624-3369-2111-3993-3993h-7304c111 2623 441 5216 979 7751 3410-590 6858-936 10317-1031v-2727zm-3993-7957c624-1881 2111-3369 3993-3993v-2703c-3470-96-6919-442-10323-1031-535 2528-864 5112-974 7727h7304zm-19837 19674 16445 9495c-2544-3979-4513-8310-5849-12840-3608 823-7152 1941-10597 3345zm-2411-32084v12410h10977c112-2879 469-5725 1057-8510-4116-946-8145-2252-12034-3900zm0 16374v12429c3895-1649 7924-2952 12039-3896-591-2792-949-5646-1062-8533h-10977zm18855-29168-16464 9505c3439 1404 6990 2526 10611 3352 1336-4537 3305-8872 5853-12858zm7385 14542v-17826c-4274 4904-7452 10690-9335 16913 3075 515 6194 822 9335 913zm0 43112v-17800c-3140 90-6257 395-9329 909 1884 6216 5059 11992 9329 16892zm-39528-57234c-1287 0-2329 1043-2329 2329 0 1287 1043 2329 2329 2329 1287 0 2329-1043 2329-2329 0-1287-1043-2329-2329-2329zm83021 53533c1287 0 2329-1043 2329-2329 0-1287-1043-2329-2329-2329-1287 0-2329 1043-2329 2329 0 1287 1043 2329 2329 2329z" fill-rule="nonzero" fill="#7aa5d6"/>
  </g>
</svg>
